<?xml version="1.0" standalone="no"?>
<!DOCTYPE svg PUBLIC "-//W3C//DTD SVG 20010904//EN"
 "http://www.w3.org/TR/2001/REC-SVG-20010904/DTD/svg10.dtd">
<svg version="1.0" xmlns="http://www.w3.org/2000/svg"
 width="512.000000pt" height="512.000000pt" viewBox="0 0 512.000000 512.000000"
 preserveAspectRatio="xMidYMid meet">
<metadata>
Created by potrace 1.11, written by Peter Selinger 2001-2013
</metadata>
<g transform="translate(0.000000,512.000000) scale(0.100000,-0.100000)"
fill="#000000" stroke="none">
<path d="M420 5067 c-30 -16 -51 -37 -68 -68 -22 -41 -23 -51 -18 -149 7 -121
20 -263 31 -355 5 -34 23 -172 31 -225 11 -78 62 -355 74 -400 5 -19 11 -48
14 -65 6 -31 61 -252 91 -360 9 -33 29 -102 45 -153 l30 -92 -84 -123 c-198
-289 -336 -576 -450 -937 -55 -174 -120 -450 -109 -460 4 -3 82 -28 173 -55
266 -77 350 -105 350 -117 0 -6 -16 -79 -36 -162 -20 -83 -36 -161 -36 -173
-1 -35 18 -50 90 -74 437 -142 880 -318 1127 -445 81 -42 106 -60 130 -95 46
-69 128 -143 197 -178 50 -25 64 -37 66 -57 6 -71 95 -175 194 -225 147 -74
350 -87 517 -32 141 45 271 168 271 255 0 18 14 30 67 57 71 37 182 140 204
190 11 24 38 42 134 90 117 58 272 131 280 131 3 0 28 11 57 24 95 43 388 152
617 230 124 42 231 82 238 88 20 17 15 61 -25 227 l-38 153 34 15 c19 8 138
45 264 83 127 38 233 71 235 73 4 5 -33 164 -74 317 -70 266 -189 562 -321
805 -48 88 -77 134 -229 361 l-23 33 31 98 c17 54 32 105 34 113 2 8 18 65 35
125 16 61 32 121 35 135 3 14 16 75 31 135 14 61 27 121 30 135 40 217 61 338
69 405 14 122 16 141 20 160 2 11 6 47 10 80 3 33 8 83 11 111 2 28 7 100 9
160 4 103 3 112 -20 151 -31 52 -98 87 -153 80 -86 -10 -344 -143 -582 -300
-88 -58 -282 -199 -300 -217 -3 -3 -54 -47 -115 -97 -60 -51 -178 -162 -262
-246 l-152 -154 -97 23 c-119 29 -182 39 -319 52 -126 11 -441 8 -535 -6 -129
-20 -138 -22 -241 -46 -94 -22 -96 -22 -111 -4 -57 70 -298 303 -413 399 -297
248 -650 474 -891 570 -87 35 -118 36 -174 6z"/>
</g>
</svg>
